<svg
  xmlns="http://www.w3.org/2000/svg"
  width="512"
  height="512"
  style="overflow: visible"
  viewBox="0 0 512 512"
  data-svgdocument=""
  id="_cAM9XKPcNKX5QO6KJYIg8"
  class="fl-svgdocument"
  x="0"
  y="0"
  xmlns:xlink="http://www.w3.org/1999/xlink"
>
  <defs
    id="_U7cWwD5cHyGg43-0BixR6"
    transform="matrix(1.1301829814910889, 0, 0, 1.1301829814910889, -26.624282836914062, 24.23394775390625)"
    data-uid="o_ejkkk4kl1_6"
  ></defs>
  <path
    text="FOLLOW_the_MONEY"
    text-anchor="middle"
    font-size="100"
    letter-spacing="0"
    side="left"
    offset="0.5"
    dx="0"
    dy="0"
    space="preserve"
    href=""
    font-family="VT323"
    font-scale="contain"
    transform="matrix(0.5650914907455444, 0, 0, 0.5650914907455444, 280.24444580078125, 359.6716613769531)"
    x="0"
    y="0"
    fill="#ffbf00"
    data-fl-textpath=""
    id="_P3jZQ6g20TvzJ2J9dggVC"
    font-weight="400"
    font-style="normal"
    data-uid="o_ejkkk4kl1_7"
    d="M-288-32Q-287.6-30.4 -287.6-28L-287.6-28Q-287.6-25.7 -288-24L-288-24L-304-24Q-303.6-22.4 -303.6-20L-303.6-20Q-303.6-17.7 -304-16L-304-16Q-303.6-14.4 -303.6-12L-303.6-12Q-303.6-9.7 -304-8L-304-8Q-303.6-6.4 -303.6-4L-303.6-4Q-303.6-1.7 -304 0L-304 0L-312 0Q-312.4-1.7 -312.4-4L-312.4-4Q-312.4-6.4 -312-8L-312-8Q-312.4-9.7 -312.4-12L-312.4-12Q-312.4-14.4 -312-16L-312-16Q-312.4-17.7 -312.4-20L-312.4-20Q-312.4-22.4 -312-24L-312-24Q-312.4-25.7 -312.4-28L-312.4-28Q-312.4-30.4 -312-32L-312-32Q-312.4-33.7 -312.4-36L-312.4-36Q-312.4-38.4 -312-40L-312-40Q-312.4-41.7 -312.4-44L-312.4-44Q-312.4-46.4 -312-48L-312-48Q-312.4-49.7 -312.4-52L-312.4-52Q-312.4-54.4 -312-56L-312-56L-288-56Q-287.6-54.4 -287.6-52L-287.6-52Q-287.6-49.7 -288-48L-288-48L-304-48Q-303.6-46.4 -303.6-44L-303.6-44Q-303.6-41.7 -304-40L-304-40Q-303.6-38.4 -303.6-36L-303.6-36Q-303.6-33.7 -304-32L-304-32L-288-32ZM-244-32Q-243.6-30.4 -243.6-28L-243.6-28Q-243.6-25.7 -244-24L-244-24Q-243.6-22.4 -243.6-20L-243.6-20Q-243.6-17.7 -244-16L-244-16L-247-16Q-246.6-14.4 -246.6-12L-246.6-12Q-246.6-9.7 -247-8L-247-8L-252-8Q-251.6-6.4 -251.6-4L-251.6-4Q-251.6-1.7 -252 0L-252 0L-268 0Q-268.4-1.7 -268.4-4L-268.4-4Q-268.4-6.4 -268-8L-268-8L-273-8Q-273.4-9.7 -273.4-12L-273.4-12Q-273.4-14.4 -273-16L-273-16L-276-16Q-276.4-17.7 -276.4-20L-276.4-20Q-276.4-22.4 -276-24L-276-24Q-276.4-25.7 -276.4-28L-276.4-28Q-276.4-30.4 -276-32L-276-32Q-276.4-33.7 -276.4-36L-276.4-36Q-276.4-38.4 -276-40L-276-40L-273-40Q-273.4-41.7 -273.4-44L-273.4-44Q-273.4-46.4 -273-48L-273-48L-268-48Q-268.4-49.7 -268.4-52L-268.4-52Q-268.4-54.4 -268-56L-268-56L-252-56Q-251.6-54.4 -251.6-52L-251.6-52Q-251.6-49.7 -252-48L-252-48L-247-48Q-246.6-46.4 -246.6-44L-246.6-44Q-246.6-41.7 -247-40L-247-40L-244-40Q-243.6-38.4 -243.6-36L-243.6-36Q-243.6-33.7 -244-32L-244-32ZM-252-16Q-252.4-17.7 -252.4-20L-252.4-20Q-252.4-22.4 -252-24L-252-24Q-252.4-25.7 -252.4-28L-252.4-28Q-252.4-30.4 -252-32L-252-32Q-252.4-33.7 -252.4-36L-252.4-36Q-252.4-38.4 -252-40L-252-40L-255-40Q-255.4-41.7 -255.4-44L-255.4-44Q-255.4-46.4 -255-48L-255-48L-265-48Q-264.6-46.4 -264.6-44L-264.6-44Q-264.6-41.7 -265-40L-265-40L-268-40Q-267.6-38.4 -267.6-36L-267.6-36Q-267.6-33.7 -268-32L-268-32Q-267.6-30.4 -267.6-28L-267.6-28Q-267.6-25.7 -268-24L-268-24Q-267.6-22.4 -267.6-20L-267.6-20Q-267.6-17.7 -268-16L-268-16L-265-16Q-264.6-14.4 -264.6-12L-264.6-12Q-264.6-9.7 -265-8L-265-8L-255-8Q-255.4-9.7 -255.4-12L-255.4-12Q-255.4-14.4 -255-16L-255-16L-252-16ZM-204-8Q-203.6-6.4 -203.6-4L-203.6-4Q-203.6-1.7 -204 0L-204 0L-232 0Q-232.4-1.7 -232.4-4L-232.4-4Q-232.4-6.4 -232-8L-232-8Q-232.4-9.7 -232.4-12L-232.4-12Q-232.4-14.4 -232-16L-232-16Q-232.4-17.7 -232.4-20L-232.4-20Q-232.4-22.4 -232-24L-232-24Q-232.4-25.7 -232.4-28L-232.4-28Q-232.4-30.4 -232-32L-232-32Q-232.4-33.7 -232.4-36L-232.4-36Q-232.4-38.4 -232-40L-232-40Q-232.4-41.7 -232.4-44L-232.4-44Q-232.4-46.4 -232-48L-232-48Q-232.4-49.7 -232.4-52L-232.4-52Q-232.4-54.4 -232-56L-232-56L-224-56Q-223.6-54.4 -223.6-52L-223.6-52Q-223.6-49.7 -224-48L-224-48Q-223.6-46.4 -223.6-44L-223.6-44Q-223.6-41.7 -224-40L-224-40Q-223.6-38.4 -223.6-36L-223.6-36Q-223.6-33.7 -224-32L-224-32Q-223.6-30.4 -223.6-28L-223.6-28Q-223.6-25.7 -224-24L-224-24Q-223.6-22.4 -223.6-20L-223.6-20Q-223.6-17.7 -224-16L-224-16Q-223.6-14.4 -223.6-12L-223.6-12Q-223.6-9.7 -224-8L-224-8L-204-8ZM-164-8Q-163.6-6.4 -163.6-4L-163.6-4Q-163.6-1.7 -164 0L-164 0L-192 0Q-192.4-1.7 -192.4-4L-192.4-4Q-192.4-6.4 -192-8L-192-8Q-192.4-9.7 -192.4-12L-192.4-12Q-192.4-14.4 -192-16L-192-16Q-192.4-17.7 -192.4-20L-192.4-20Q-192.4-22.4 -192-24L-192-24Q-192.4-25.7 -192.4-28L-192.4-28Q-192.4-30.4 -192-32L-192-32Q-192.4-33.7 -192.4-36L-192.4-36Q-192.4-38.4 -192-40L-192-40Q-192.4-41.7 -192.4-44L-192.4-44Q-192.4-46.4 -192-48L-192-48Q-192.4-49.7 -192.4-52L-192.4-52Q-192.4-54.4 -192-56L-192-56L-184-56Q-183.6-54.4 -183.6-52L-183.6-52Q-183.6-49.7 -184-48L-184-48Q-183.6-46.4 -183.6-44L-183.6-44Q-183.6-41.7 -184-40L-184-40Q-183.6-38.4 -183.6-36L-183.6-36Q-183.6-33.7 -184-32L-184-32Q-183.6-30.4 -183.6-28L-183.6-28Q-183.6-25.7 -184-24L-184-24Q-183.6-22.4 -183.6-20L-183.6-20Q-183.6-17.7 -184-16L-184-16Q-183.6-14.4 -183.6-12L-183.6-12Q-183.6-9.7 -184-8L-184-8L-164-8ZM-124-32Q-123.6-30.4 -123.6-28L-123.6-28Q-123.6-25.7 -124-24L-124-24Q-123.6-22.4 -123.6-20L-123.6-20Q-123.6-17.7 -124-16L-124-16L-127-16Q-126.6-14.4 -126.6-12L-126.6-12Q-126.6-9.7 -127-8L-127-8L-132-8Q-131.6-6.4 -131.6-4L-131.6-4Q-131.6-1.7 -132 0L-132 0L-148 0Q-148.4-1.7 -148.4-4L-148.4-4Q-148.4-6.4 -148-8L-148-8L-153-8Q-153.4-9.7 -153.4-12L-153.4-12Q-153.4-14.4 -153-16L-153-16L-156-16Q-156.4-17.7 -156.4-20L-156.4-20Q-156.4-22.4 -156-24L-156-24Q-156.4-25.7 -156.4-28L-156.4-28Q-156.4-30.4 -156-32L-156-32Q-156.4-33.7 -156.4-36L-156.4-36Q-156.4-38.4 -156-40L-156-40L-153-40Q-153.4-41.7 -153.4-44L-153.4-44Q-153.4-46.4 -153-48L-153-48L-148-48Q-148.4-49.7 -148.4-52L-148.4-52Q-148.4-54.4 -148-56L-148-56L-132-56Q-131.6-54.4 -131.6-52L-131.6-52Q-131.6-49.7 -132-48L-132-48L-127-48Q-126.6-46.4 -126.6-44L-126.6-44Q-126.6-41.7 -127-40L-127-40L-124-40Q-123.6-38.4 -123.6-36L-123.6-36Q-123.6-33.7 -124-32L-124-32ZM-132-16Q-132.4-17.7 -132.4-20L-132.4-20Q-132.4-22.4 -132-24L-132-24Q-132.4-25.7 -132.4-28L-132.4-28Q-132.4-30.4 -132-32L-132-32Q-132.4-33.7 -132.4-36L-132.4-36Q-132.4-38.4 -132-40L-132-40L-135-40Q-135.4-41.7 -135.4-44L-135.4-44Q-135.4-46.4 -135-48L-135-48L-145-48Q-144.6-46.4 -144.6-44L-144.6-44Q-144.6-41.7 -145-40L-145-40L-148-40Q-147.6-38.4 -147.6-36L-147.6-36Q-147.6-33.7 -148-32L-148-32Q-147.6-30.4 -147.6-28L-147.6-28Q-147.6-25.7 -148-24L-148-24Q-147.6-22.4 -147.6-20L-147.6-20Q-147.6-17.7 -148-16L-148-16L-145-16Q-144.6-14.4 -144.6-12L-144.6-12Q-144.6-9.7 -145-8L-145-8L-135-8Q-135.4-9.7 -135.4-12L-135.4-12Q-135.4-14.4 -135-16L-135-16L-132-16ZM-84-48Q-83.6-46.4 -83.6-44L-83.6-44Q-83.6-41.7 -84-40L-84-40Q-83.6-38.4 -83.6-36L-83.6-36Q-83.6-33.7 -84-32L-84-32Q-83.6-30.4 -83.6-28L-83.6-28Q-83.6-25.7 -84-24L-84-24L-87-24Q-86.6-22.4 -86.6-20L-86.6-20Q-86.6-17.7 -87-16L-87-16Q-86.6-14.4 -86.6-12L-86.6-12Q-86.6-9.7 -87-8L-87-8L-89-8Q-88.6-6.4 -88.6-4L-88.6-4Q-88.6-1.7 -89 0L-89 0L-95 0Q-95.4-1.7 -95.4-4L-95.4-4Q-95.4-6.4 -95-8L-95-8L-97-8Q-97.4-9.7 -97.4-12L-97.4-12Q-97.4-14.4 -97-16L-97-16L-103-16Q-102.6-14.4 -102.6-12L-102.6-12Q-102.6-9.7 -103-8L-103-8L-105-8Q-104.6-6.4 -104.6-4L-104.6-4Q-104.6-1.7 -105 0L-105 0L-111 0Q-111.4-1.7 -111.4-4L-111.4-4Q-111.4-6.4 -111-8L-111-8L-113-8Q-113.4-9.7 -113.4-12L-113.4-12Q-113.4-14.4 -113-16L-113-16Q-113.4-17.7 -113.4-20L-113.4-20Q-113.4-22.4 -113-24L-113-24L-116-24Q-116.4-25.7 -116.4-28L-116.4-28Q-116.4-30.4 -116-32L-116-32Q-116.4-33.7 -116.4-36L-116.4-36Q-116.4-38.4 -116-40L-116-40Q-116.4-41.7 -116.4-44L-116.4-44Q-116.4-46.4 -116-48L-116-48Q-116.4-49.7 -116.4-52L-116.4-52Q-116.4-54.4 -116-56L-116-56L-108-56Q-107.6-54.4 -107.6-52L-107.6-52Q-107.6-49.7 -108-48L-108-48Q-107.6-46.4 -107.6-44L-107.6-44Q-107.6-41.7 -108-40L-108-40Q-107.6-38.4 -107.6-36L-107.6-36Q-107.6-33.7 -108-32L-108-32Q-107.6-30.4 -107.6-28L-107.6-28Q-107.6-25.7 -108-24L-108-24Q-107.6-22.4 -107.6-20L-107.6-20Q-107.6-17.7 -108-16L-108-16L-105-16Q-105.4-17.7 -105.4-20L-105.4-20Q-105.4-22.4 -105-24L-105-24L-103-24Q-103.4-25.7 -103.4-28L-103.4-28Q-103.4-30.4 -103-32L-103-32Q-103.4-33.7 -103.4-36L-103.4-36Q-103.4-38.4 -103-40L-103-40Q-103.4-41.7 -103.4-44L-103.4-44Q-103.4-46.4 -103-48L-103-48Q-103.4-49.7 -103.4-52L-103.4-52Q-103.4-54.4 -103-56L-103-56L-97-56Q-96.6-54.4 -96.6-52L-96.6-52Q-96.6-49.7 -97-48L-97-48Q-96.6-46.4 -96.6-44L-96.6-44Q-96.6-41.7 -97-40L-97-40Q-96.6-38.4 -96.6-36L-96.6-36Q-96.6-33.7 -97-32L-97-32Q-96.6-30.4 -96.6-28L-96.6-28Q-96.6-25.7 -97-24L-97-24L-95-24Q-94.6-22.4 -94.6-20L-94.6-20Q-94.6-17.7 -95-16L-95-16L-92-16Q-92.4-17.7 -92.4-20L-92.4-20Q-92.4-22.4 -92-24L-92-24Q-92.4-25.7 -92.4-28L-92.4-28Q-92.4-30.4 -92-32L-92-32Q-92.4-33.7 -92.4-36L-92.4-36Q-92.4-38.4 -92-40L-92-40Q-92.4-41.7 -92.4-44L-92.4-44Q-92.4-46.4 -92-48L-92-48Q-92.4-49.7 -92.4-52L-92.4-52Q-92.4-54.4 -92-56L-92-56L-84-56Q-83.6-54.4 -83.6-52L-83.6-52Q-83.6-49.7 -84-48L-84-48ZM-44-8Q-43.6-6.4 -43.6-4L-43.6-4Q-43.6-1.7 -44 0L-44 0L-76 0Q-76.4-1.7 -76.4-4L-76.4-4Q-76.4-6.4 -76-8L-76-8L-44-8ZM-20-8L-8-8Q-7.600000000000001-6.4 -7.600000000000001-4L-7.600000000000001-4Q-7.600000000000001-1.7 -8 0L-8 0L-24 0Q-24.4-1.7 -24.4-4L-24.4-4Q-24.4-6.4 -24-8L-24-8L-28-8Q-28.4-9.7 -28.4-12L-28.4-12Q-28.4-14.4 -28-16L-28-16Q-28.4-17.7 -28.4-20L-28.4-20Q-28.4-22.4 -28-24L-28-24Q-28.4-25.7 -28.4-28L-28.4-28Q-28.4-30.4 -28-32L-28-32L-36-32Q-36.4-33.7 -36.4-36L-36.4-36Q-36.4-38.4 -36-40L-36-40L-28-40Q-28.4-41.7 -28.4-44L-28.4-44Q-28.4-46.4 -28-48L-28-48Q-28.4-49.7 -28.4-52L-28.4-52Q-28.4-54.4 -28-56L-28-56L-20-56Q-19.6-54.4 -19.6-52L-19.6-52Q-19.6-49.7 -20-48L-20-48Q-19.6-46.4 -19.6-44L-19.6-44Q-19.6-41.7 -20-40L-20-40L-8-40Q-7.600000000000001-38.4 -7.600000000000001-36L-7.600000000000001-36Q-7.600000000000001-33.7 -8-32L-8-32L-20-32Q-19.6-30.4 -19.6-28L-19.6-28Q-19.6-25.7 -20-24L-20-24Q-19.6-22.4 -19.6-20L-19.6-20Q-19.6-17.7 -20-16L-20-16Q-19.6-14.4 -19.6-12L-19.6-12Q-19.6-9.7 -20-8L-20-8ZM 12.4-36Q 12.4-33.7  12-32L 12-32L 15-32Q 15.4-30.4  15.4-28L 15.4-28Q 15.4-25.7  15-24L 15-24L 12-24Q 12.4-22.4  12.4-20L 12.4-20Q 12.4-17.7  12-16L 12-16Q 12.4-14.4  12.4-12L 12.4-12Q 12.4-9.7  12-8L 12-8Q 12.4-6.4  12.4-4L 12.4-4Q 12.4-1.7  12 0L 12 0L 4 0Q 3.6-1.7  3.6-4L 3.6-4Q 3.6-6.4  4-8L 4-8Q 3.6-9.7  3.6-12L 3.6-12Q 3.6-14.4  4-16L 4-16Q 3.6-17.7  3.6-20L 3.6-20Q 3.6-22.4  4-24L 4-24Q 3.6-25.7  3.6-28L 3.6-28Q 3.6-30.4  4-32L 4-32Q 3.6-33.7  3.6-36L 3.6-36Q 3.6-38.4  4-40L 4-40Q 3.6-41.7  3.6-44L 3.6-44Q 3.6-46.4  4-48L 4-48Q 3.6-49.7  3.6-52L 3.6-52Q 3.6-54.4  4-56L 4-56L 12-56Q 12.4-54.4  12.4-52L 12.4-52Q 12.4-49.7  12-48L 12-48Q 12.4-46.4  12.4-44L 12.4-44Q 12.4-41.7  12-40L 12-40Q 12.4-38.4  12.4-36L 12.4-36ZM 36-24Q 36.4-22.4  36.4-20L 36.4-20Q 36.4-17.7  36-16L 36-16Q 36.4-14.4  36.4-12L 36.4-12Q 36.4-9.7  36-8L 36-8Q 36.4-6.4  36.4-4L 36.4-4Q 36.4-1.7  36 0L 36 0L 28 0Q 27.6-1.7  27.6-4L 27.6-4Q 27.6-6.4  28-8L 28-8Q 27.6-9.7  27.6-12L 27.6-12Q 27.6-14.4  28-16L 28-16Q 27.6-17.7  27.6-20L 27.6-20Q 27.6-22.4  28-24L 28-24Q 27.6-25.7  27.6-28L 27.6-28Q 27.6-30.4  28-32L 28-32L 15-32Q 14.6-33.7  14.6-36L 14.6-36Q 14.6-38.4  15-40L 15-40L 31-40Q 31.4-38.4  31.4-36L 31.4-36Q 31.4-33.7  31-32L 31-32L 36-32Q 36.4-30.4  36.4-28L 36.4-28Q 36.4-25.7  36-24L 36-24ZM 76.4-28Q 76.4-25.7  76-24L 76-24Q 76.4-22.4  76.4-20L 76.4-20Q 76.4-17.7  76-16L 76-16L 55-16Q 55.4-14.4  55.4-12L 55.4-12Q 55.4-9.7  55-8L 55-8L 72-8Q 72.4-6.4  72.4-4L 72.4-4Q 72.4-1.7  72 0L 72 0L 52 0Q 51.6-1.7  51.6-4L 51.6-4Q 51.6-6.4  52-8L 52-8L 47-8Q 46.6-9.7  46.6-12L 46.6-12Q 46.6-14.4  47-16L 47-16L 44-16Q 43.6-17.7  43.6-20L 43.6-20Q 43.6-22.4  44-24L 44-24L 47-24Q 46.6-25.7  46.6-28L 46.6-28Q 46.6-30.4  47-32L 47-32L 52-32Q 51.6-33.7  51.6-36L 51.6-36Q 51.6-38.4  52-40L 52-40L 72-40Q 72.4-38.4  72.4-36L 72.4-36Q 72.4-33.7  72-32L 72-32L 76-32Q 76.4-30.4  76.4-28L 76.4-28ZM 68-24Q 67.6-25.7  67.6-28L 67.6-28Q 67.6-30.4  68-32L 68-32L 55-32Q 55.4-30.4  55.4-28L 55.4-28Q 55.4-25.7  55-24L 55-24L 68-24ZM 116-8Q 116.4-6.4  116.4-4L 116.4-4Q 116.4-1.7  116 0L 116 0L 84 0Q 83.6-1.7  83.6-4L 83.6-4Q 83.6-6.4  84-8L 84-8L 116-8ZM 156-48Q 156.4-46.4  156.4-44L 156.4-44Q 156.4-41.7  156-40L 156-40Q 156.4-38.4  156.4-36L 156.4-36Q 156.4-33.7  156-32L 156-32Q 156.4-30.4  156.4-28L 156.4-28Q 156.4-25.7  156-24L 156-24Q 156.4-22.4  156.4-20L 156.4-20Q 156.4-17.7  156-16L 156-16Q 156.4-14.4  156.4-12L 156.4-12Q 156.4-9.7  156-8L 156-8Q 156.4-6.4  156.4-4L 156.4-4Q 156.4-1.7  156 0L 156 0L 148 0Q 147.6-1.7  147.6-4L 147.6-4Q 147.6-6.4  148-8L 148-8Q 147.6-9.7  147.6-12L 147.6-12Q 147.6-14.4  148-16L 148-16Q 147.6-17.7  147.6-20L 147.6-20Q 147.6-22.4  148-24L 148-24Q 147.6-25.7  147.6-28L 147.6-28Q 147.6-30.4  148-32L 148-32Q 147.6-33.7  147.6-36L 147.6-36Q 147.6-38.4  148-40L 148-40L 145-40Q 145.4-38.4  145.4-36L 145.4-36Q 145.4-33.7  145-32L 145-32Q 145.4-30.4  145.4-28L 145.4-28Q 145.4-25.7  145-24L 145-24L 143-24Q 143.4-22.4  143.4-20L 143.4-20Q 143.4-17.7  143-16L 143-16Q 143.4-14.4  143.4-12L 143.4-12Q 143.4-9.7  143-8L 143-8L 137-8Q 136.6-9.7  136.6-12L 136.6-12Q 136.6-14.4  137-16L 137-16Q 136.6-17.7  136.6-20L 136.6-20Q 136.6-22.4  137-24L 137-24L 135-24Q 134.6-25.7  134.6-28L 134.6-28Q 134.6-30.4  135-32L 135-32Q 134.6-33.7  134.6-36L 134.6-36Q 134.6-38.4  135-40L 135-40L 132-40Q 132.4-38.4  132.4-36L 132.4-36Q 132.4-33.7  132-32L 132-32Q 132.4-30.4  132.4-28L 132.4-28Q 132.4-25.7  132-24L 132-24Q 132.4-22.4  132.4-20L 132.4-20Q 132.4-17.7  132-16L 132-16Q 132.4-14.4  132.4-12L 132.4-12Q 132.4-9.7  132-8L 132-8Q 132.4-6.4  132.4-4L 132.4-4Q 132.4-1.7  132 0L 132 0L 124 0Q 123.6-1.7  123.6-4L 123.6-4Q 123.6-6.4  124-8L 124-8Q 123.6-9.7  123.6-12L 123.6-12Q 123.6-14.4  124-16L 124-16Q 123.6-17.7  123.6-20L 123.6-20Q 123.6-22.4  124-24L 124-24Q 123.6-25.7  123.6-28L 123.6-28Q 123.6-30.4  124-32L 124-32Q 123.6-33.7  123.6-36L 123.6-36Q 123.6-38.4  124-40L 124-40Q 123.6-41.7  123.6-44L 123.6-44Q 123.6-46.4  124-48L 124-48Q 123.6-49.7  123.6-52L 123.6-52Q 123.6-54.4  124-56L 124-56L 134-56Q 134.4-54.4  134.4-52L 134.4-52Q 134.4-49.7  134-48L 134-48L 137-48Q 137.4-46.4  137.4-44L 137.4-44Q 137.4-41.7  137-40L 137-40L 138.5-40Q 138.9-38.4  138.9-36L 138.9-36Q 138.9-33.7  138.5-32L 138.5-32L 141.5-32Q 141.1-33.7  141.1-36L 141.1-36Q 141.1-38.4  141.5-40L 141.5-40L 143-40Q 142.6-41.7  142.6-44L 142.6-44Q 142.6-46.4  143-48L 143-48L 146-48Q 145.6-49.7  145.6-52L 145.6-52Q 145.6-54.4  146-56L 146-56L 156-56Q 156.4-54.4  156.4-52L 156.4-52Q 156.4-49.7  156-48L 156-48ZM 196-32Q 196.4-30.4  196.4-28L 196.4-28Q 196.4-25.7  196-24L 196-24Q 196.4-22.4  196.4-20L 196.4-20Q 196.4-17.7  196-16L 196-16L 193-16Q 193.4-14.4  193.4-12L 193.4-12Q 193.4-9.7  193-8L 193-8L 188-8Q 188.4-6.4  188.4-4L 188.4-4Q 188.4-1.7  188 0L 188 0L 172 0Q 171.6-1.7  171.6-4L 171.6-4Q 171.6-6.4  172-8L 172-8L 167-8Q 166.6-9.7  166.6-12L 166.6-12Q 166.6-14.4  167-16L 167-16L 164-16Q 163.6-17.7  163.6-20L 163.6-20Q 163.6-22.4  164-24L 164-24Q 163.6-25.7  163.6-28L 163.6-28Q 163.6-30.4  164-32L 164-32Q 163.6-33.7  163.6-36L 163.6-36Q 163.6-38.4  164-40L 164-40L 167-40Q 166.6-41.7  166.6-44L 166.6-44Q 166.6-46.4  167-48L 167-48L 172-48Q 171.6-49.7  171.6-52L 171.6-52Q 171.6-54.4  172-56L 172-56L 188-56Q 188.4-54.4  188.4-52L 188.4-52Q 188.4-49.7  188-48L 188-48L 193-48Q 193.4-46.4  193.4-44L 193.4-44Q 193.4-41.7  193-40L 193-40L 196-40Q 196.4-38.4  196.4-36L 196.4-36Q 196.4-33.7  196-32L 196-32ZM 188-16Q 187.6-17.7  187.6-20L 187.6-20Q 187.6-22.4  188-24L 188-24Q 187.6-25.7  187.6-28L 187.6-28Q 187.6-30.4  188-32L 188-32Q 187.6-33.7  187.6-36L 187.6-36Q 187.6-38.4  188-40L 188-40L 185-40Q 184.6-41.7  184.6-44L 184.6-44Q 184.6-46.4  185-48L 185-48L 175-48Q 175.4-46.4  175.4-44L 175.4-44Q 175.4-41.7  175-40L 175-40L 172-40Q 172.4-38.4  172.4-36L 172.4-36Q 172.4-33.7  172-32L 172-32Q 172.4-30.4  172.4-28L 172.4-28Q 172.4-25.7  172-24L 172-24Q 172.4-22.4  172.4-20L 172.4-20Q 172.4-17.7  172-16L 172-16L 175-16Q 175.4-14.4  175.4-12L 175.4-12Q 175.4-9.7  175-8L 175-8L 185-8Q 184.6-9.7  184.6-12L 184.6-12Q 184.6-14.4  185-16L 185-16L 188-16ZM 236-48Q 236.4-46.4  236.4-44L 236.4-44Q 236.4-41.7  236-40L 236-40Q 236.4-38.4  236.4-36L 236.4-36Q 236.4-33.7  236-32L 236-32Q 236.4-30.4  236.4-28L 236.4-28Q 236.4-25.7  236-24L 236-24Q 236.4-22.4  236.4-20L 236.4-20Q 236.4-17.7  236-16L 236-16Q 236.4-14.4  236.4-12L 236.4-12Q 236.4-9.7  236-8L 236-8Q 236.4-6.4  236.4-4L 236.4-4Q 236.4-1.7  236 0L 236 0L 228 0Q 227.6-1.7  227.6-4L 227.6-4Q 227.6-6.4  228-8L 228-8L 223-8Q 222.6-9.7  222.6-12L 222.6-12Q 222.6-14.4  223-16L 223-16L 220-16Q 219.6-17.7  219.6-20L 219.6-20Q 219.6-22.4  220-24L 220-24L 216-24Q 215.6-25.7  215.6-28L 215.6-28Q 215.6-30.4  216-32L 216-32L 212-32Q 212.4-30.4  212.4-28L 212.4-28Q 212.4-25.7  212-24L 212-24Q 212.4-22.4  212.4-20L 212.4-20Q 212.4-17.7  212-16L 212-16Q 212.4-14.4  212.4-12L 212.4-12Q 212.4-9.7  212-8L 212-8Q 212.4-6.4  212.4-4L 212.4-4Q 212.4-1.7  212 0L 212 0L 204 0Q 203.6-1.7  203.6-4L 203.6-4Q 203.6-6.4  204-8L 204-8Q 203.6-9.7  203.6-12L 203.6-12Q 203.6-14.4  204-16L 204-16Q 203.6-17.7  203.6-20L 203.6-20Q 203.6-22.4  204-24L 204-24Q 203.6-25.7  203.6-28L 203.6-28Q 203.6-30.4  204-32L 204-32Q 203.6-33.7  203.6-36L 203.6-36Q 203.6-38.4  204-40L 204-40Q 203.6-41.7  203.6-44L 203.6-44Q 203.6-46.4  204-48L 204-48Q 203.6-49.7  203.6-52L 203.6-52Q 203.6-54.4  204-56L 204-56L 214-56Q 214.4-54.4  214.4-52L 214.4-52Q 214.4-49.7  214-48L 214-48L 217-48Q 217.4-46.4  217.4-44L 217.4-44Q 217.4-41.7  217-40L 217-40L 220-40Q 220.4-38.4  220.4-36L 220.4-36Q 220.4-33.7  220-32L 220-32L 224-32Q 224.4-30.4  224.4-28L 224.4-28Q 224.4-25.7  224-24L 224-24L 228-24Q 227.6-25.7  227.6-28L 227.6-28Q 227.6-30.4  228-32L 228-32Q 227.6-33.7  227.6-36L 227.6-36Q 227.6-38.4  228-40L 228-40Q 227.6-41.7  227.6-44L 227.6-44Q 227.6-46.4  228-48L 228-48Q 227.6-49.7  227.6-52L 227.6-52Q 227.6-54.4  228-56L 228-56L 236-56Q 236.4-54.4  236.4-52L 236.4-52Q 236.4-49.7  236-48L 236-48ZM 272-24L 256-24Q 256.4-22.4  256.4-20L 256.4-20Q 256.4-17.7  256-16L 256-16Q 256.4-14.4  256.4-12L 256.4-12Q 256.4-9.7  256-8L 256-8L 272-8Q 272.4-6.4  272.4-4L 272.4-4Q 272.4-1.7  272 0L 272 0L 248 0Q 247.6-1.7  247.6-4L 247.6-4Q 247.6-6.4  248-8L 248-8Q 247.6-9.7  247.6-12L 247.6-12Q 247.6-14.4  248-16L 248-16Q 247.6-17.7  247.6-20L 247.6-20Q 247.6-22.4  248-24L 248-24Q 247.6-25.7  247.6-28L 247.6-28Q 247.6-30.4  248-32L 248-32Q 247.6-33.7  247.6-36L 247.6-36Q 247.6-38.4  248-40L 248-40Q 247.6-41.7  247.6-44L 247.6-44Q 247.6-46.4  248-48L 248-48Q 247.6-49.7  247.6-52L 247.6-52Q 247.6-54.4  248-56L 248-56L 272-56Q 272.4-54.4  272.4-52L 272.4-52Q 272.4-49.7  272-48L 272-48L 256-48Q 256.4-46.4  256.4-44L 256.4-44Q 256.4-41.7  256-40L 256-40Q 256.4-38.4  256.4-36L 256.4-36Q 256.4-33.7  256-32L 256-32L 272-32Q 272.4-30.4  272.4-28L 272.4-28Q 272.4-25.7  272-24L 272-24ZM 316.4-52Q 316.4-49.7  316-48L 316-48Q 316.4-46.4  316.4-44L 316.4-44Q 316.4-41.7  316-40L 316-40L 312-40Q 312.4-38.4  312.4-36L 312.4-36Q 312.4-33.7  312-32L 312-32L 308-32Q 308.4-30.4  308.4-28L 308.4-28Q 308.4-25.7  308-24L 308-24L 304-24Q 304.4-22.4  304.4-20L 304.4-20Q 304.4-17.7  304-16L 304-16Q 304.4-14.4  304.4-12L 304.4-12Q 304.4-9.7  304-8L 304-8Q 304.4-6.4  304.4-4L 304.4-4Q 304.4-1.7  304 0L 304 0L 296 0Q 295.6-1.7  295.6-4L 295.6-4Q 295.6-6.4  296-8L 296-8Q 295.6-9.7  295.6-12L 295.6-12Q 295.6-14.4  296-16L 296-16Q 295.6-17.7  295.6-20L 295.6-20Q 295.6-22.4  296-24L 296-24L 292-24Q 291.6-25.7  291.6-28L 291.6-28Q 291.6-30.4  292-32L 292-32L 288-32Q 287.6-33.7  287.6-36L 287.6-36Q 287.6-38.4  288-40L 288-40L 284-40Q 283.6-41.7  283.6-44L 283.6-44Q 283.6-46.4  284-48L 284-48Q 283.6-49.7  283.6-52L 283.6-52Q 283.6-54.4  284-56L 284-56L 292-56Q 292.4-54.4  292.4-52L 292.4-52Q 292.4-49.7  292-48L 292-48Q 292.4-46.4  292.4-44L 292.4-44Q 292.4-41.7  292-40L 292-40L 296-40Q 296.4-38.4  296.4-36L 296.4-36Q 296.4-33.7  296-32L 296-32L 304-32Q 303.6-33.7  303.6-36L 303.6-36Q 303.6-38.4  304-40L 304-40L 308-40Q 307.6-41.7  307.6-44L 307.6-44Q 307.6-46.4  308-48L 308-48Q 307.6-49.7  307.6-52L 307.6-52Q 307.6-54.4  308-56L 308-56L 316-56Q 316.4-54.4  316.4-52L 316.4-52Z"
  ></path>
  Fichier 8
  <path
    d="M507,412.2l-6.9,10c-0.8,1.2-1.6,2.5-2.6,3.7l-3,4l-3.2,4.4c-1.1,1.5-2.4,3-3.6,4.5l-3.9,4.8
			c-1.3,1.6-2.8,3.2-4.2,4.8l-4.4,4.9l-4.7,4.8c0.1,0.6,0.7,0.6,2-0.2c0.9-0.5,1.7-1.1,2.5-1.7c0.5-0.4,1.1-0.8,1.7-1.3l1.9-1.7
			c1.3-1.3,2.9-2.7,4.6-4.5c0.9-0.9,1.8-1.8,2.8-2.8l2.9-3.3c5.1-5.8,9.9-11.8,14.3-18.1l5.1-7.5c-0.9-0.2-1.2-1.5-0.8-4.1
			C508.5,410.5,508.2,410.4,507,412.2z"
    fill="#ffbf00"
    transform="matrix(0.8980072140693665, 0, 0, 0.8980072140693665, 2.582346200942993, -1.0658141036401503e-14)"
    data-uid="o_ejkkk4kl1_9"
  ></path>
  <path
    d="M563.8,282c-0.1,0.5-0.2,1-0.3,1.5l0.9,12.2L563.8,282z"
    fill="#000000"
    transform="matrix(0.8980072140693665, 0, 0, 0.8980072140693665, 2.582346200942993, -1.0658141036401503e-14)"
    data-uid="o_ejkkk4kl1_10"
  ></path>
  <path
    d="M546.3,333.8l0.5-3.4l-0.8,4.1c-0.3,1.4-0.6,2.7-0.9,3.9l-1.8,7.4c-0.5,2.4-1.2,4.6-1.8,6.9l-1.7,6.4
			l-0.4,1.6l-0.5,1.5l-1,3l-1.9,6c-0.6,2-1.4,3.9-2.1,5.9l-2.3,6c1.1-2.1,2.1-4.1,3.1-6s2-3.7,2.8-5.4c1.7-3.4,3.2-6.2,4.5-8.3
			c0.9-1.6,1.7-3.2,2.4-4.8c0.8-1.8,1.7-3.7,2.5-5.8l1.3-3.2l1.2-3.5l2.5-7.5c0.4-1.9,0.6-3.9,1-6.1l1-7c0.4-2.4,0.6-4.9,0.9-7.4
			s0.6-5,0.9-7.4c-1.1,5-1.1,5-1.6,12l1.1-13.1l0.3-7.9c-0.6,2.2-1,4.4-1.3,6.6c-0.5,3.4-1.4,7.9-2.1,12.8c-0.1,0.6-0.2,1.3-0.3,1.9
			l-0.4,1.9l-0.8,3.9c-0.5,2.6-1,5.3-1.6,8l-1.8,7.8l-0.9,3.7c-0.3,1.2-0.6,2.4-0.9,3.5c2.5-11.2,5.1-27,5.8-40l-2.6,10.9l-1.5,7.4
			l-0.7,3.6l-0.3,1.7l-0.4,1.7l0.3-1.7L546.3,333.8z"
    fill="#ffbf00"
    transform="matrix(0.8980072140693665, 0, 0, 0.8980072140693665, 2.582346200942993, -1.0658141036401503e-14)"
    data-uid="o_ejkkk4kl1_11"
  ></path>
  <path
    d="M388.6,499l-3.5,1.5c-2.3,0.9-4.5,1.9-6.4,2.7c-4,1.5-7,2.8-7.9,3.8c1.4-0.1,2.7-0.4,4-0.8
			c1-0.3,2.1-0.6,3.3-0.9l1.9-0.6c0.7-0.2,1.3-0.5,2-0.7l9-3.3l9.3-3.9c1.7-0.6,3.3-1.4,4.8-2.1l4.2-2.9c1.5-1,3-1.9,4.4-3.1
			l4.5-3.3l2.3-1.7l1.2-0.8l1.1-0.9c-1.2,0.8-2.5,1.4-3.8,2.1l-3.9,2l-3.9,2.1l-4,1.9l-5,3.3c-0.9,0.6-1.8,1.1-2.8,1.7l-2.8,1.6
			c-0.5,0-1.1,0.1-1.7,0.2c0.5-0.6,1.3-1.3,4.4-3.1l-0.6,0.3c-3.1,1.3-6.3,2.6-9.5,3.9c1.1-0.1,2-0.4,3-0.6l-1.7,0.9
			C389.8,498.5,389.2,498.8,388.6,499z"
    fill="#ffbf00"
    transform="matrix(0.8980072140693665, 0, 0, 0.8980072140693665, 2.582346200942993, -1.0658141036401503e-14)"
    data-uid="o_ejkkk4kl1_12"
  ></path>
  <path
    d="M555.4,396.8c-2.3,2.9-3.8,4.1-4.5,3.3c-0.5-0.7-0.5-2.5,0.2-6.1c0.1-1.1-1.2,0.8-3.3,4.4
			c-1,1.8-2.3,4.1-3.7,6.7s-3.2,5.4-5,8.4c-7.2,11.9-16.9,25.9-24,33.9c-4.7,4.2-3.5,0.4,0.5-7.1c0.5-1,1.1-1.9,1.6-3l1.7-3.4
			c1.2-2.4,2.5-5,4-7.6l4.1-8.6c0.7-1.5,1.4-2.9,2.1-4.5l1.9-4.6c1.4-3.7,3-7.5,4.2-11.4c0.3-0.4,0.5-0.8,0.8-1.2l1.7-4.8l0.8-2.3
			l0.7-2.3c-0.9,2-2,4-3.1,5.9l-3.1,5.6c-0.5,0.9-1,1.9-1.6,2.8l-1.6,2.6l-3.2,5.1c-1.5,2.9-3.1,5.6-4.8,8.3l2.3-4.5l-4.6,6.4
			l-2.2,3c-0.7,1-1.5,1.8-2.2,2.7c-1.4,1.7-2.8,3.3-4.1,4.8c-1.2,1.4-2.4,2.7-3.7,3.9c-1.9,1.7-4.2,3.9-6.7,6.7
			c-1.2,1.4-2.7,2.8-4.2,4.3s-3,3.2-4.7,4.9c-1.2,1.7-2.6,3.2-4,4.8l-4.4,5c2.8-3.3,4.6-5.5,5.8-7.2l-4.7,4.7
			c-1.6,1.6-3.3,3.3-5,4.9l-1.7,1.5c2.9-4.4,6.1-8.5,9.6-12.5c-4.7,4.7-9.8,10.1-15.6,16l3.8-4.1c1.4-1.5,2.9-3,4.3-4.7l4.4-5.2
			c-2.1,2.3-3.7,3.8-3.4,3c1-1.5,2.3-3.1,3.7-4.9c-11.1,11.1-22.7,20.5-32.2,26.4l-3.4,2.1c-1.1,0.7-2.2,1.2-3.2,1.8
			c-2,1.1-3.8,2-5.4,2.6c-1.2,0.6-2.5,1-3.9,1.3c-0.7,0.2-1.5,0.2-2.2-0.2l-7.3,4.9c-3.8,2.4-7.3,4.4-10.5,6.3s-6.3,3.3-9,4.6
			s-5.2,2.4-7.4,3.3s-4.1,1.7-5.8,2.3c-6.7,2.3-9.3,2.5-9,1.3l-3.7,1.6l-3.7,1.3l-7.5,2.8l-7.6,2.5l-3.7,1.2l-3.7,1l-7.3,1.9
			c-2.4,0.6-4.7,1-7,1.4s-4.4,0.9-6.5,1.2l-6,0.8l-4.6,0.5c-1.5,0.2-3,0.2-4.6,0.3c-3,0.2-6,0.4-8.9,0.5c-5.9,0-11.7,0.2-17.3-0.3
			c-11.1-0.6-22.2-1.9-33.1-4.1l-11.1-0.8l-5.2-0.6l-1.9-0.5c-1.6-0.4-3.2-0.8-4.7-1.2l-4.4-1.4c-2.8-0.9-5.2-1.6-7.1-2.4
			c-1.3-0.5-2.5-1.1-3.7-1.8c1.4-0.2,4.4,0.7,8.5,1.6c2,0.5,4.3,1.1,6.7,1.7s4.9,1,7.4,1.5l-2.7-1.3l-3.4-0.9
			c-6-1.3-12.1-2.4-17.5-3.7l-4.8-0.7c-1.6-0.2-3.2-0.6-4.9-1l-4.7-1c-1.5-0.3-3-0.6-4.4-1c2.3,0.1,4.7,0.5,6.9,1
			c1.6,0.3,3.5,0.8,5.4,1.3s4.2,0.9,6.4,1.4c2.9,0.5,5.9,0.8,8.8,1c-13.5-4.4-26.7-9.8-39.3-16.3c-1.9-0.8-3.7-1.5-5.5-2.2l0.7,0.3
			l3.9,1.5l-2.8-1.3c-0.9-0.5-1.9-0.9-2.8-1.5c-2.7-1.3-6.2-2.7-10.1-4.6l-6.2-3.1c-1.1-0.6-2.2-1.1-3.3-1.7l-3.4-2
			c-10.2-5.7-19.9-12.2-29.1-19.4c-1.2-1.5-2.5-3.1-3.9-4.7c-1.3-1.6-2.6-3.2-3.9-5l-2.1-2.5l-1.1-1.3c-0.3-0.4-0.7-0.9-1-1.3
			c-1.3-1.8-2.7-3.5-4.2-5.3c-0.7-0.9-1.5-1.8-2.2-2.7l-2.1-2.8c-1.4-1.9-2.9-3.8-4.4-5.7c-1.4-2-2.9-4-4.3-6l-2.2-3l-2.1-3.2
			l-4.1-6l-3.9-6.3l-2-3.2l-1.9-3.3l-3.9-6.6c-2.4-4.6-5-9.1-7.3-14l-1.8-3.6l-0.9-1.8c-0.3-0.6-0.5-1.2-0.8-1.9l-3.3-7.4
			c-0.6-1.2-1-2.5-1.5-3.8l-1.5-3.9l-1.5-3.9l-1.3-4c-0.9-2.7-1.8-5.3-2.6-8l-2.3-8.3l-0.6-2.1l-0.5-2.1l-1-4.2l-1-4.2
			c-0.3-1.4-0.5-2.8-0.8-4.3l-1.5-8.6l-1.1-8.7c-1.7-14.3-2-28.7-1.1-43c0.8-11.9,2.5-23.8,5.3-35.4c0.3-1.5,0.8-3.1,1.2-4.7
			c0.4-1.6,0.9-3.3,1.5-4.9c1.2-3.2,2.4-6.4,3.5-9.2c2.6-5.5,4.6-9.5,4.6-9.5c3.7-9.5,8-18.8,12.8-27.9c2.2-4.4,4.7-8.5,7-12.6
			c1.1-2.1,2.5-4,3.7-6l3.7-5.8c9.7-14.4,20.9-27.9,33.3-40.1c12.7-12.5,26.7-23.5,41.8-32.8c11.3-6.8,23.1-12.6,35.3-17.3
			c13.9-5.4,28.4-9.4,43.2-11.9c2.9-0.5,5.7-0.8,8.6-1.3l4.3-0.6c1.4-0.2,2.8-0.3,4.2-0.4l8.4-0.8c2.8-0.2,5.6-0.3,8.4-0.4l4.2-0.2
			c1.4-0.1,2.8,0,4.1,0h8.2c1.4,0,2.7,0.1,4.1,0.1l4.1,0.2l4.1,0.2l2,0.1l2,0.2c16.6,1.3,33.1,4.1,49.1,8.4l10.3,3l10,3.4
			c1.7,0.5,3.3,1.2,5,1.9l4.9,1.9c3.3,1.2,6.5,2.7,9.7,4.2c25.5,11.4,49,27,69.5,46l3.8,3.6l1.9,1.8c0.6,0.6,1.2,1.3,1.8,1.9
			c2.4,2.6,4.9,5.1,7.3,7.7l7,8c1.2,1.3,2.2,2.8,3.4,4.2l3.3,4.2c2.2,2.9,4.3,6,6.2,9.2l1.6,2.6c0.5,0.9,1,1.7,1.5,2.6l2.9,5.4
			c1,1.8,2,3.6,2.9,5.5l2.6,5.4c0.9,1.8,1.7,3.5,2.6,5.1s1.5,3.3,2.3,4.8l2,4.3l1,2.2l0.9,2.2l3.9,9.1c2.3,6.2,4.8,12.5,6.7,18.9
			l1.5,4.7c0.5,1.6,0.9,3.2,1.3,4.8l2.5,9.3l2,9.1c0.3,1.5,0.7,2.9,1,4.4l0.8,4.2l1.5,8l1,7.3l0.9,6.4c0.2,2,0.4,3.7,0.6,5.3
			c0.8,6.3,1.5,9.4,2,7.9c0.7-1.1,1.5-3.3,2.1-6.6c0.9-4.1,1.6-8.3,1.9-12.6c0.2-2.6,0.3-5.4,0.5-8.4s-0.1-6.2-0.1-9.6
			c-0.1-1.7,0-3.5-0.2-5.3l-0.5-5.5c-0.3-3.8-0.7-7.7-1.4-11.8c-2.7-18.5-7.6-36.6-14.7-53.9l-3-7.2l-3.4-7.1
			c-2.2-4.8-4.8-9.5-7.5-14.3c-1.3-2.4-2.7-4.7-4.2-7l-4.4-7l-4.8-6.8c-1.6-2.3-3.2-4.6-4.9-6.7c-13.9-18.5-30-35.2-48-49.7
			c-2.3-1.8-4.5-3.6-6.8-5.4l-7-5.1l-3.5-2.5l-3.6-2.4l-7.3-4.8c-10-6.2-20.3-11.7-31-16.6c-5.3-2.6-10.8-4.7-16.3-6.9l-2.1-0.8
			l-2.1-0.7l-4.2-1.5l-4.2-1.5c-1.4-0.5-2.8-1-4.2-1.4c-5.6-1.7-11.3-3.5-17.2-4.8c-2.9-0.7-5.8-1.4-8.7-2l-8.8-1.7L329,3.5
			l-4.5-0.6l-9-1.2c-3-0.3-6-0.5-9-0.8s-6-0.6-9.1-0.6l-9.1-0.3C287.6,0,286.8,0,286,0h-2.3l-4.6,0.1l-4.6,0.1c-1.5,0-3.1,0-4.6,0.2
			L260.8,1c-35.9,3-70.9,12.9-103,29.1c-3,1.6-6.1,3-9,4.9l-5.2,3l-2.6,1.6l-1.3,0.8l-1.3,0.8l-10.3,6.7l-10,7.3
			c-3.3,2.5-6.5,5.2-9.7,7.8c-23.5,19.8-43.8,43.2-60,69.3l-2.5,4l-2.3,4l-4.3,7.4l-6.9,12.9c-2.9,5.8-6,11.6-8.4,17.5l-2,4.4
			l-1,2.2c-0.3,0.7-0.6,1.5-0.9,2.2l-3.5,9c-0.7,1.7-1.2,3.4-1.8,5.1l-1.6,5l-1.7,5.1l-1.4,5.1l-1.4,5.1c-0.5,1.7-1,3.4-1.3,5.2
			L5.2,237c-0.4,1.7-0.7,3.5-1,5.2l-0.9,5.2l-0.9,5.3L1.8,258l-0.6,5.3l-0.3,2.6c-0.1,0.9-0.2,1.8-0.2,2.6L0,279.2l0.2,2.8l0.3,2.9
			l0.6,5.8l0.6,5.7c0.3,1.9,0.6,3.7,0.9,5.4c0.2,3.3,0.3,6.7,0.6,10.1l1.2,10.5l0.3,2.7c0.1,0.9,0.3,1.8,0.4,2.7l0.9,5.4l1,5.5
			c0.3,1.8,0.8,3.6,1.2,5.5l1.3,5.5c0.4,1.9,0.8,3.7,1.4,5.5l3.2,11.1c1.2,3.7,2.5,7.4,3.8,11.1c0.3,0.9,0.6,1.9,1,2.8l1,2.8
			l2.2,5.5c6.1,14.6,13.5,28.6,21.9,42c8.1,12.7,17.2,24.8,27.3,36.1l0.3,0.4c-1.9-1.4-1.8-0.7-0.5,1.2c2,3,4.3,5.8,6.7,8.5
			c5.6,6.2,11.5,12.1,17.7,17.7c8.5,7.5,16,13.6,23,18.8l5.1,3.8l2.5,1.8c0.8,0.6,1.7,1.1,2.5,1.7l9.5,6.4l9.4,5.8
			c0.8,0.5,1.6,1,2.4,1.4l2.4,1.3l4.9,2.7c1.7,0.9,3.3,1.9,5.1,2.8l5.4,2.7l5.7,2.8c1.9,0.9,4,1.8,6.1,2.7l4.9,2l2.5,1
			c0.8,0.3,1.7,0.6,2.5,0.9l10.1,3.5c18.2,5.8,36.9,9.8,55.8,11.8c19,2,38,2.4,57.1,1.1c3.5-0.2,6.8-0.8,9.9-1.1l4.7-0.6
			c1.5-0.2,3-0.3,4.5-0.6l8.3-1.4l3.9-0.7c1.3-0.2,2.5-0.5,3.7-0.8l6.9-1.5c2.2-0.5,4.3-0.9,6.3-1.4c4-1,7.6-1.9,11-2.6l9-2.4
			c2.7-0.7,5.3-1.3,7.6-2c4.6-1.3,8.5-2.3,12-3.3c7-2.2,13.1-3.7,21.3-7.3l3.2-1.4c1.1-0.5,2.3-1,3.4-1.6c2.4-1.2,4.9-2.6,7.7-4.1
			c1.4-0.8,2.9-1.5,4.3-2.5l4.6-2.9c3.2-2.1,6.8-4.3,10.5-7.1c13.9-10.1,27-21.4,39.2-33.5c13.2-13.3,25.3-27.7,36-43.1
			c1.3-2.1,2.6-4.3,4-6.6s2.8-4.5,4.1-6.9l3.8-7c1.2-2.3,2.5-4.5,3.6-6.7c6.4-12.6,8.8-18.2,10.8-21.8c1-1.8,1.7-3.3,2.6-5
			s1.8-3.7,3-6.8l-2.4,5l3.4-8.2C561,388,558.3,392.5,555.4,396.8z M467.3,470.8l-4.4,4.5C464.4,473.7,465.8,472.2,467.3,470.8
			L467.3,470.8z M258.5,524.4l2.8,0.4l2.8,0.3c3.7,0.3,7.2,0.6,10.3,0.7c-0.3,0.1-0.7,0.3-1,0.5c-0.8-0.1-1.5-0.2-2.3-0.3l-5.8-0.6
			l-2.8-0.3l-1.4-0.1l-1.4-0.2c-3.6-0.5-7.1-1-10.3-1.2c0.4-0.1,0.7-0.2,1.1-0.4c0.7,0.1,1.4,0.3,2.2,0.3L258.5,524.4z M184.7,492.4
			c-0.8-0.3-1.6-0.7-2.3-1C183.1,491.6,183.9,492,184.7,492.4L184.7,492.4z"
    fill="#b2a9da"
    transform="matrix(0.8980072140693665, 0, 0, 0.8980072140693665, 2.582346200942993, -1.0658141036401503e-14)"
    data-uid="o_ejkkk4kl1_13"
  ></path>
  <g
    transform="matrix(2.511692762374878, 0, 0, 1.7410054206848145, 133.3180389404297, 115.96617126464844)"
    fill="#ffbf00"
    data-uid="o_ejkkk4kl1_14"
  >
    <path
      fill-rule="evenodd"
      clip-rule="evenodd"
      d="M5,78.067c0-7.466,0-49.264,0-56.729C5,10.333,11.833,5.333,20.933,5.405  c7.466,0,50.264,0,57.729,0c10.837,0,15.933,7.095,15.933,14.933c0,7.466,0,52.264,0,59.729C94.595,90.333,88.667,95,78.662,95  c-7.466,0-50.263,0-57.729,0C11,95,5,88.667,5,78.067z M23.399,12.872c-7.419,0-10.933,2.466-10.933,9.932  c0,7.466,0,34.865,0,34.865h7.466l7.466-14.933l17.976,20.389l11.889-42.787L73,61l3.5-3.331h10.629c0,0,0-26.399,0-33.865  c0-7.466-2.467-10.932-9.933-10.932H23.399z M71.5,71.875l-13.125-29.25L48.25,77.25L28.399,54.669l-4,10.466H12.466  c0,0,0,4,0,11.467c0,7.466,3.466,10.933,10.933,10.933c7.466,0,44.598,0,52.428,0c7.835,0,11.302-3.467,11.302-10.933  c0-7.467,0-11.467,0-11.467L78.125,65L71.5,71.875z"
      transform="matrix(1, 0, 0, 1, 0, 0)"
      fill="#ffbf00"
      data-uid="o_ejkkk4kl1_15"
    ></path>
  </g>
</svg>
